<mxfile host="app.diagrams.net" modified="2022-04-25T14:22:16.591Z" agent="5.0 (Windows NT 10.0; Win64; x64) AppleWebKit/537.36 (KHTML, like Gecko) Chrome/100.0.4896.127 Safari/537.36" etag="vmNmqL5UK8djGkMjv0BF" version="17.4.6" type="github">
  <diagram id="C5RBs43oDa-KdzZeNtuy" name="Page-1">
    <mxGraphModel dx="2310" dy="1939" grid="1" gridSize="10" guides="1" tooltips="1" connect="1" arrows="1" fold="1" page="1" pageScale="1" pageWidth="827" pageHeight="1169" math="0" shadow="0">
      <root>
        <mxCell id="WIyWlLk6GJQsqaUBKTNV-0" />
        <mxCell id="WIyWlLk6GJQsqaUBKTNV-1" parent="WIyWlLk6GJQsqaUBKTNV-0" />
        <mxCell id="WIyWlLk6GJQsqaUBKTNV-2" value="" style="rounded=0;html=1;jettySize=auto;orthogonalLoop=1;fontSize=11;endArrow=block;endFill=0;endSize=8;strokeWidth=1;shadow=0;labelBackgroundColor=none;edgeStyle=orthogonalEdgeStyle;" parent="WIyWlLk6GJQsqaUBKTNV-1" source="WIyWlLk6GJQsqaUBKTNV-3" target="WIyWlLk6GJQsqaUBKTNV-6" edge="1">
          <mxGeometry relative="1" as="geometry" />
        </mxCell>
        <mxCell id="WIyWlLk6GJQsqaUBKTNV-3" value="进入网站首页" style="rounded=1;whiteSpace=wrap;html=1;fontSize=12;glass=0;strokeWidth=1;shadow=0;" parent="WIyWlLk6GJQsqaUBKTNV-1" vertex="1">
          <mxGeometry x="160" y="80" width="120" height="40" as="geometry" />
        </mxCell>
        <mxCell id="WIyWlLk6GJQsqaUBKTNV-5" value="No" style="edgeStyle=orthogonalEdgeStyle;rounded=0;html=1;jettySize=auto;orthogonalLoop=1;fontSize=11;endArrow=block;endFill=0;endSize=8;strokeWidth=1;shadow=0;labelBackgroundColor=none;" parent="WIyWlLk6GJQsqaUBKTNV-1" source="WIyWlLk6GJQsqaUBKTNV-6" target="WIyWlLk6GJQsqaUBKTNV-7" edge="1">
          <mxGeometry y="10" relative="1" as="geometry">
            <mxPoint as="offset" />
          </mxGeometry>
        </mxCell>
        <mxCell id="nHo4GdVra1B7AHpy1X5v-4" value="Yes" style="edgeStyle=orthogonalEdgeStyle;rounded=0;orthogonalLoop=1;jettySize=auto;html=1;endArrow=block;endFill=0;" edge="1" parent="WIyWlLk6GJQsqaUBKTNV-1" source="WIyWlLk6GJQsqaUBKTNV-6" target="nHo4GdVra1B7AHpy1X5v-3">
          <mxGeometry relative="1" as="geometry" />
        </mxCell>
        <mxCell id="WIyWlLk6GJQsqaUBKTNV-6" value="是否已经注册" style="rhombus;whiteSpace=wrap;html=1;shadow=0;fontFamily=Helvetica;fontSize=12;align=center;strokeWidth=1;spacing=6;spacingTop=-4;" parent="WIyWlLk6GJQsqaUBKTNV-1" vertex="1">
          <mxGeometry x="170" y="170" width="100" height="80" as="geometry" />
        </mxCell>
        <mxCell id="nHo4GdVra1B7AHpy1X5v-2" style="edgeStyle=orthogonalEdgeStyle;rounded=0;orthogonalLoop=1;jettySize=auto;html=1;entryX=1;entryY=0.25;entryDx=0;entryDy=0;endArrow=block;endFill=0;" edge="1" parent="WIyWlLk6GJQsqaUBKTNV-1" source="WIyWlLk6GJQsqaUBKTNV-7" target="WIyWlLk6GJQsqaUBKTNV-3">
          <mxGeometry relative="1" as="geometry">
            <Array as="points">
              <mxPoint x="390" y="90" />
            </Array>
          </mxGeometry>
        </mxCell>
        <mxCell id="WIyWlLk6GJQsqaUBKTNV-7" value="注册" style="rounded=1;whiteSpace=wrap;html=1;fontSize=12;glass=0;strokeWidth=1;shadow=0;" parent="WIyWlLk6GJQsqaUBKTNV-1" vertex="1">
          <mxGeometry x="340" y="190" width="120" height="40" as="geometry" />
        </mxCell>
        <mxCell id="nHo4GdVra1B7AHpy1X5v-1" style="edgeStyle=orthogonalEdgeStyle;rounded=0;orthogonalLoop=1;jettySize=auto;html=1;entryX=0.5;entryY=0;entryDx=0;entryDy=0;endArrow=block;endFill=0;" edge="1" parent="WIyWlLk6GJQsqaUBKTNV-1" source="nHo4GdVra1B7AHpy1X5v-0" target="WIyWlLk6GJQsqaUBKTNV-3">
          <mxGeometry relative="1" as="geometry" />
        </mxCell>
        <mxCell id="nHo4GdVra1B7AHpy1X5v-0" value="开始" style="ellipse;whiteSpace=wrap;html=1;" vertex="1" parent="WIyWlLk6GJQsqaUBKTNV-1">
          <mxGeometry x="170" y="-40" width="100" height="60" as="geometry" />
        </mxCell>
        <mxCell id="nHo4GdVra1B7AHpy1X5v-29" value="" style="edgeStyle=orthogonalEdgeStyle;rounded=0;orthogonalLoop=1;jettySize=auto;html=1;endArrow=block;endFill=0;" edge="1" parent="WIyWlLk6GJQsqaUBKTNV-1" source="nHo4GdVra1B7AHpy1X5v-3" target="nHo4GdVra1B7AHpy1X5v-28">
          <mxGeometry relative="1" as="geometry" />
        </mxCell>
        <mxCell id="nHo4GdVra1B7AHpy1X5v-3" value="登录" style="rounded=1;whiteSpace=wrap;html=1;shadow=0;strokeWidth=1;spacing=6;spacingTop=-4;" vertex="1" parent="WIyWlLk6GJQsqaUBKTNV-1">
          <mxGeometry x="160" y="340" width="120" height="60" as="geometry" />
        </mxCell>
        <mxCell id="nHo4GdVra1B7AHpy1X5v-14" value="Yes" style="edgeStyle=orthogonalEdgeStyle;rounded=0;orthogonalLoop=1;jettySize=auto;html=1;endArrow=block;endFill=0;" edge="1" parent="WIyWlLk6GJQsqaUBKTNV-1" source="nHo4GdVra1B7AHpy1X5v-9" target="nHo4GdVra1B7AHpy1X5v-13">
          <mxGeometry relative="1" as="geometry" />
        </mxCell>
        <mxCell id="nHo4GdVra1B7AHpy1X5v-16" value="No" style="edgeStyle=orthogonalEdgeStyle;rounded=0;orthogonalLoop=1;jettySize=auto;html=1;endArrow=block;endFill=0;" edge="1" parent="WIyWlLk6GJQsqaUBKTNV-1" source="nHo4GdVra1B7AHpy1X5v-9" target="nHo4GdVra1B7AHpy1X5v-15">
          <mxGeometry relative="1" as="geometry" />
        </mxCell>
        <mxCell id="nHo4GdVra1B7AHpy1X5v-9" value="是否为患者" style="rhombus;whiteSpace=wrap;html=1;rounded=1;shadow=0;strokeWidth=1;spacing=6;spacingTop=-4;" vertex="1" parent="WIyWlLk6GJQsqaUBKTNV-1">
          <mxGeometry x="180" y="630" width="80" height="80" as="geometry" />
        </mxCell>
        <mxCell id="nHo4GdVra1B7AHpy1X5v-44" value="" style="edgeStyle=orthogonalEdgeStyle;rounded=0;orthogonalLoop=1;jettySize=auto;html=1;endArrow=block;endFill=0;" edge="1" parent="WIyWlLk6GJQsqaUBKTNV-1" source="nHo4GdVra1B7AHpy1X5v-13" target="nHo4GdVra1B7AHpy1X5v-43">
          <mxGeometry relative="1" as="geometry" />
        </mxCell>
        <mxCell id="nHo4GdVra1B7AHpy1X5v-46" value="" style="edgeStyle=orthogonalEdgeStyle;rounded=0;orthogonalLoop=1;jettySize=auto;html=1;endArrow=block;endFill=0;" edge="1" parent="WIyWlLk6GJQsqaUBKTNV-1" source="nHo4GdVra1B7AHpy1X5v-13" target="nHo4GdVra1B7AHpy1X5v-45">
          <mxGeometry relative="1" as="geometry" />
        </mxCell>
        <mxCell id="nHo4GdVra1B7AHpy1X5v-48" value="" style="edgeStyle=orthogonalEdgeStyle;rounded=0;orthogonalLoop=1;jettySize=auto;html=1;endArrow=block;endFill=0;" edge="1" parent="WIyWlLk6GJQsqaUBKTNV-1" source="nHo4GdVra1B7AHpy1X5v-13" target="nHo4GdVra1B7AHpy1X5v-47">
          <mxGeometry relative="1" as="geometry" />
        </mxCell>
        <mxCell id="nHo4GdVra1B7AHpy1X5v-80" value="" style="edgeStyle=orthogonalEdgeStyle;rounded=0;orthogonalLoop=1;jettySize=auto;html=1;endArrow=block;endFill=0;" edge="1" parent="WIyWlLk6GJQsqaUBKTNV-1" source="nHo4GdVra1B7AHpy1X5v-13" target="nHo4GdVra1B7AHpy1X5v-79">
          <mxGeometry relative="1" as="geometry" />
        </mxCell>
        <mxCell id="nHo4GdVra1B7AHpy1X5v-13" value="患者登录成功" style="whiteSpace=wrap;html=1;rounded=1;shadow=0;strokeWidth=1;spacing=6;spacingTop=-4;" vertex="1" parent="WIyWlLk6GJQsqaUBKTNV-1">
          <mxGeometry x="590" y="640" width="120" height="60" as="geometry" />
        </mxCell>
        <mxCell id="nHo4GdVra1B7AHpy1X5v-18" value="Yes" style="edgeStyle=orthogonalEdgeStyle;rounded=0;orthogonalLoop=1;jettySize=auto;html=1;endArrow=block;endFill=0;" edge="1" parent="WIyWlLk6GJQsqaUBKTNV-1" source="nHo4GdVra1B7AHpy1X5v-15" target="nHo4GdVra1B7AHpy1X5v-17">
          <mxGeometry relative="1" as="geometry" />
        </mxCell>
        <mxCell id="nHo4GdVra1B7AHpy1X5v-27" value="No" style="edgeStyle=orthogonalEdgeStyle;rounded=0;orthogonalLoop=1;jettySize=auto;html=1;endArrow=block;endFill=0;" edge="1" parent="WIyWlLk6GJQsqaUBKTNV-1" source="nHo4GdVra1B7AHpy1X5v-15" target="nHo4GdVra1B7AHpy1X5v-26">
          <mxGeometry relative="1" as="geometry" />
        </mxCell>
        <mxCell id="nHo4GdVra1B7AHpy1X5v-15" value="是否为医生" style="rhombus;whiteSpace=wrap;html=1;rounded=1;shadow=0;strokeWidth=1;spacing=6;spacingTop=-4;" vertex="1" parent="WIyWlLk6GJQsqaUBKTNV-1">
          <mxGeometry x="180" y="790" width="80" height="80" as="geometry" />
        </mxCell>
        <mxCell id="nHo4GdVra1B7AHpy1X5v-52" value="" style="edgeStyle=orthogonalEdgeStyle;rounded=0;orthogonalLoop=1;jettySize=auto;html=1;endArrow=block;endFill=0;" edge="1" parent="WIyWlLk6GJQsqaUBKTNV-1" source="nHo4GdVra1B7AHpy1X5v-17" target="nHo4GdVra1B7AHpy1X5v-51">
          <mxGeometry relative="1" as="geometry" />
        </mxCell>
        <mxCell id="nHo4GdVra1B7AHpy1X5v-60" value="" style="edgeStyle=orthogonalEdgeStyle;rounded=0;orthogonalLoop=1;jettySize=auto;html=1;endArrow=block;endFill=0;" edge="1" parent="WIyWlLk6GJQsqaUBKTNV-1" source="nHo4GdVra1B7AHpy1X5v-17" target="nHo4GdVra1B7AHpy1X5v-59">
          <mxGeometry relative="1" as="geometry" />
        </mxCell>
        <mxCell id="nHo4GdVra1B7AHpy1X5v-65" style="edgeStyle=orthogonalEdgeStyle;rounded=0;orthogonalLoop=1;jettySize=auto;html=1;endArrow=block;endFill=0;" edge="1" parent="WIyWlLk6GJQsqaUBKTNV-1" source="nHo4GdVra1B7AHpy1X5v-17" target="nHo4GdVra1B7AHpy1X5v-61">
          <mxGeometry relative="1" as="geometry" />
        </mxCell>
        <mxCell id="nHo4GdVra1B7AHpy1X5v-17" value="医生登录成功" style="whiteSpace=wrap;html=1;rounded=1;shadow=0;strokeWidth=1;spacing=6;spacingTop=-4;" vertex="1" parent="WIyWlLk6GJQsqaUBKTNV-1">
          <mxGeometry x="-220" y="800" width="120" height="60" as="geometry" />
        </mxCell>
        <mxCell id="nHo4GdVra1B7AHpy1X5v-56" value="" style="edgeStyle=orthogonalEdgeStyle;rounded=0;orthogonalLoop=1;jettySize=auto;html=1;endArrow=block;endFill=0;" edge="1" parent="WIyWlLk6GJQsqaUBKTNV-1" source="nHo4GdVra1B7AHpy1X5v-26" target="nHo4GdVra1B7AHpy1X5v-55">
          <mxGeometry relative="1" as="geometry" />
        </mxCell>
        <mxCell id="nHo4GdVra1B7AHpy1X5v-26" value="药剂师登陆成功" style="whiteSpace=wrap;html=1;rounded=1;shadow=0;strokeWidth=1;spacing=6;spacingTop=-4;" vertex="1" parent="WIyWlLk6GJQsqaUBKTNV-1">
          <mxGeometry x="160" y="960" width="120" height="60" as="geometry" />
        </mxCell>
        <mxCell id="nHo4GdVra1B7AHpy1X5v-30" value="Yes" style="edgeStyle=orthogonalEdgeStyle;rounded=0;orthogonalLoop=1;jettySize=auto;html=1;entryX=0.5;entryY=0;entryDx=0;entryDy=0;endArrow=block;endFill=0;" edge="1" parent="WIyWlLk6GJQsqaUBKTNV-1" source="nHo4GdVra1B7AHpy1X5v-28" target="nHo4GdVra1B7AHpy1X5v-9">
          <mxGeometry relative="1" as="geometry" />
        </mxCell>
        <mxCell id="nHo4GdVra1B7AHpy1X5v-31" value="No" style="edgeStyle=orthogonalEdgeStyle;rounded=0;orthogonalLoop=1;jettySize=auto;html=1;entryX=0;entryY=0.25;entryDx=0;entryDy=0;endArrow=block;endFill=0;" edge="1" parent="WIyWlLk6GJQsqaUBKTNV-1" source="nHo4GdVra1B7AHpy1X5v-28" target="nHo4GdVra1B7AHpy1X5v-3">
          <mxGeometry relative="1" as="geometry" />
        </mxCell>
        <mxCell id="nHo4GdVra1B7AHpy1X5v-28" value="账号密码是否正确" style="rhombus;whiteSpace=wrap;html=1;rounded=1;shadow=0;strokeWidth=1;spacing=6;spacingTop=-4;" vertex="1" parent="WIyWlLk6GJQsqaUBKTNV-1">
          <mxGeometry x="180" y="470" width="80" height="80" as="geometry" />
        </mxCell>
        <mxCell id="nHo4GdVra1B7AHpy1X5v-78" value="" style="edgeStyle=orthogonalEdgeStyle;rounded=0;orthogonalLoop=1;jettySize=auto;html=1;endArrow=block;endFill=0;" edge="1" parent="WIyWlLk6GJQsqaUBKTNV-1" source="nHo4GdVra1B7AHpy1X5v-43" target="nHo4GdVra1B7AHpy1X5v-77">
          <mxGeometry relative="1" as="geometry" />
        </mxCell>
        <mxCell id="nHo4GdVra1B7AHpy1X5v-43" value="挂号" style="whiteSpace=wrap;html=1;rounded=1;shadow=0;strokeWidth=1;spacing=6;spacingTop=-4;" vertex="1" parent="WIyWlLk6GJQsqaUBKTNV-1">
          <mxGeometry x="590" y="780" width="120" height="60" as="geometry" />
        </mxCell>
        <mxCell id="nHo4GdVra1B7AHpy1X5v-45" value="个人信息" style="whiteSpace=wrap;html=1;rounded=1;shadow=0;strokeWidth=1;spacing=6;spacingTop=-4;" vertex="1" parent="WIyWlLk6GJQsqaUBKTNV-1">
          <mxGeometry x="590" y="490" width="120" height="60" as="geometry" />
        </mxCell>
        <mxCell id="nHo4GdVra1B7AHpy1X5v-47" value="查看病历" style="whiteSpace=wrap;html=1;rounded=1;shadow=0;strokeWidth=1;spacing=6;spacingTop=-4;" vertex="1" parent="WIyWlLk6GJQsqaUBKTNV-1">
          <mxGeometry x="770" y="580" width="120" height="60" as="geometry" />
        </mxCell>
        <mxCell id="nHo4GdVra1B7AHpy1X5v-68" value="" style="edgeStyle=orthogonalEdgeStyle;rounded=0;orthogonalLoop=1;jettySize=auto;html=1;endArrow=block;endFill=0;" edge="1" parent="WIyWlLk6GJQsqaUBKTNV-1" source="nHo4GdVra1B7AHpy1X5v-49" target="nHo4GdVra1B7AHpy1X5v-67">
          <mxGeometry relative="1" as="geometry" />
        </mxCell>
        <mxCell id="nHo4GdVra1B7AHpy1X5v-49" value="开处方" style="whiteSpace=wrap;html=1;rounded=1;shadow=0;strokeWidth=1;spacing=6;spacingTop=-4;" vertex="1" parent="WIyWlLk6GJQsqaUBKTNV-1">
          <mxGeometry x="-220" y="500" width="120" height="60" as="geometry" />
        </mxCell>
        <mxCell id="nHo4GdVra1B7AHpy1X5v-51" value="查看病历" style="whiteSpace=wrap;html=1;rounded=1;shadow=0;strokeWidth=1;spacing=6;spacingTop=-4;" vertex="1" parent="WIyWlLk6GJQsqaUBKTNV-1">
          <mxGeometry x="-420" y="800" width="120" height="60" as="geometry" />
        </mxCell>
        <mxCell id="nHo4GdVra1B7AHpy1X5v-58" value="" style="edgeStyle=orthogonalEdgeStyle;rounded=0;orthogonalLoop=1;jettySize=auto;html=1;endArrow=block;endFill=0;" edge="1" parent="WIyWlLk6GJQsqaUBKTNV-1" source="nHo4GdVra1B7AHpy1X5v-55" target="nHo4GdVra1B7AHpy1X5v-57">
          <mxGeometry relative="1" as="geometry" />
        </mxCell>
        <mxCell id="nHo4GdVra1B7AHpy1X5v-55" value="接收处方" style="whiteSpace=wrap;html=1;rounded=1;shadow=0;strokeWidth=1;spacing=6;spacingTop=-4;" vertex="1" parent="WIyWlLk6GJQsqaUBKTNV-1">
          <mxGeometry x="160" y="1100" width="120" height="60" as="geometry" />
        </mxCell>
        <mxCell id="nHo4GdVra1B7AHpy1X5v-72" value="" style="edgeStyle=orthogonalEdgeStyle;rounded=0;orthogonalLoop=1;jettySize=auto;html=1;endArrow=block;endFill=0;" edge="1" parent="WIyWlLk6GJQsqaUBKTNV-1" source="nHo4GdVra1B7AHpy1X5v-57" target="nHo4GdVra1B7AHpy1X5v-71">
          <mxGeometry relative="1" as="geometry" />
        </mxCell>
        <mxCell id="nHo4GdVra1B7AHpy1X5v-57" value="配药" style="whiteSpace=wrap;html=1;rounded=1;shadow=0;strokeWidth=1;spacing=6;spacingTop=-4;" vertex="1" parent="WIyWlLk6GJQsqaUBKTNV-1">
          <mxGeometry x="160" y="1240" width="120" height="60" as="geometry" />
        </mxCell>
        <mxCell id="nHo4GdVra1B7AHpy1X5v-64" value="" style="edgeStyle=orthogonalEdgeStyle;rounded=0;orthogonalLoop=1;jettySize=auto;html=1;endArrow=block;endFill=0;" edge="1" parent="WIyWlLk6GJQsqaUBKTNV-1" source="nHo4GdVra1B7AHpy1X5v-59" target="nHo4GdVra1B7AHpy1X5v-63">
          <mxGeometry relative="1" as="geometry" />
        </mxCell>
        <mxCell id="nHo4GdVra1B7AHpy1X5v-59" value="接收挂号信息" style="whiteSpace=wrap;html=1;rounded=1;shadow=0;strokeWidth=1;spacing=6;spacingTop=-4;" vertex="1" parent="WIyWlLk6GJQsqaUBKTNV-1">
          <mxGeometry x="-220" y="940" width="120" height="60" as="geometry" />
        </mxCell>
        <mxCell id="nHo4GdVra1B7AHpy1X5v-66" style="edgeStyle=orthogonalEdgeStyle;rounded=0;orthogonalLoop=1;jettySize=auto;html=1;entryX=0.5;entryY=1;entryDx=0;entryDy=0;endArrow=block;endFill=0;" edge="1" parent="WIyWlLk6GJQsqaUBKTNV-1" source="nHo4GdVra1B7AHpy1X5v-61" target="nHo4GdVra1B7AHpy1X5v-49">
          <mxGeometry relative="1" as="geometry" />
        </mxCell>
        <mxCell id="nHo4GdVra1B7AHpy1X5v-61" value="确认患者信息" style="whiteSpace=wrap;html=1;rounded=1;shadow=0;strokeWidth=1;spacing=6;spacingTop=-4;" vertex="1" parent="WIyWlLk6GJQsqaUBKTNV-1">
          <mxGeometry x="-220" y="640" width="120" height="60" as="geometry" />
        </mxCell>
        <mxCell id="nHo4GdVra1B7AHpy1X5v-63" value="确认患者信息" style="whiteSpace=wrap;html=1;rounded=1;shadow=0;strokeWidth=1;spacing=6;spacingTop=-4;" vertex="1" parent="WIyWlLk6GJQsqaUBKTNV-1">
          <mxGeometry x="-220" y="1080" width="120" height="60" as="geometry" />
        </mxCell>
        <mxCell id="nHo4GdVra1B7AHpy1X5v-67" value="提交" style="whiteSpace=wrap;html=1;rounded=1;shadow=0;strokeWidth=1;spacing=6;spacingTop=-4;" vertex="1" parent="WIyWlLk6GJQsqaUBKTNV-1">
          <mxGeometry x="-220" y="360" width="120" height="60" as="geometry" />
        </mxCell>
        <mxCell id="nHo4GdVra1B7AHpy1X5v-74" value="No" style="edgeStyle=orthogonalEdgeStyle;rounded=0;orthogonalLoop=1;jettySize=auto;html=1;endArrow=block;endFill=0;" edge="1" parent="WIyWlLk6GJQsqaUBKTNV-1" source="nHo4GdVra1B7AHpy1X5v-71" target="nHo4GdVra1B7AHpy1X5v-73">
          <mxGeometry relative="1" as="geometry" />
        </mxCell>
        <mxCell id="nHo4GdVra1B7AHpy1X5v-76" value="Yes" style="edgeStyle=orthogonalEdgeStyle;rounded=0;orthogonalLoop=1;jettySize=auto;html=1;endArrow=block;endFill=0;" edge="1" parent="WIyWlLk6GJQsqaUBKTNV-1" source="nHo4GdVra1B7AHpy1X5v-71" target="nHo4GdVra1B7AHpy1X5v-75">
          <mxGeometry relative="1" as="geometry" />
        </mxCell>
        <mxCell id="nHo4GdVra1B7AHpy1X5v-71" value="患者信息是否有误" style="rhombus;whiteSpace=wrap;html=1;rounded=1;shadow=0;strokeWidth=1;spacing=6;spacingTop=-4;" vertex="1" parent="WIyWlLk6GJQsqaUBKTNV-1">
          <mxGeometry x="180" y="1370" width="80" height="80" as="geometry" />
        </mxCell>
        <mxCell id="nHo4GdVra1B7AHpy1X5v-99" value="" style="edgeStyle=orthogonalEdgeStyle;rounded=0;orthogonalLoop=1;jettySize=auto;html=1;endArrow=block;endFill=0;" edge="1" parent="WIyWlLk6GJQsqaUBKTNV-1" source="nHo4GdVra1B7AHpy1X5v-73" target="nHo4GdVra1B7AHpy1X5v-98">
          <mxGeometry relative="1" as="geometry" />
        </mxCell>
        <mxCell id="nHo4GdVra1B7AHpy1X5v-73" value="确认患者信息" style="whiteSpace=wrap;html=1;rounded=1;shadow=0;strokeWidth=1;spacing=6;spacingTop=-4;" vertex="1" parent="WIyWlLk6GJQsqaUBKTNV-1">
          <mxGeometry x="320" y="1380" width="120" height="60" as="geometry" />
        </mxCell>
        <mxCell id="nHo4GdVra1B7AHpy1X5v-75" value="不予给药" style="whiteSpace=wrap;html=1;rounded=1;shadow=0;strokeWidth=1;spacing=6;spacingTop=-4;" vertex="1" parent="WIyWlLk6GJQsqaUBKTNV-1">
          <mxGeometry x="160" y="1540" width="120" height="60" as="geometry" />
        </mxCell>
        <mxCell id="nHo4GdVra1B7AHpy1X5v-95" value="" style="edgeStyle=orthogonalEdgeStyle;rounded=0;orthogonalLoop=1;jettySize=auto;html=1;endArrow=block;endFill=0;" edge="1" parent="WIyWlLk6GJQsqaUBKTNV-1" source="nHo4GdVra1B7AHpy1X5v-77" target="nHo4GdVra1B7AHpy1X5v-94">
          <mxGeometry relative="1" as="geometry" />
        </mxCell>
        <mxCell id="nHo4GdVra1B7AHpy1X5v-77" value="支付" style="whiteSpace=wrap;html=1;rounded=1;shadow=0;strokeWidth=1;spacing=6;spacingTop=-4;" vertex="1" parent="WIyWlLk6GJQsqaUBKTNV-1">
          <mxGeometry x="590" y="920" width="120" height="60" as="geometry" />
        </mxCell>
        <mxCell id="nHo4GdVra1B7AHpy1X5v-82" value="" style="edgeStyle=orthogonalEdgeStyle;rounded=0;orthogonalLoop=1;jettySize=auto;html=1;endArrow=block;endFill=0;" edge="1" parent="WIyWlLk6GJQsqaUBKTNV-1" source="nHo4GdVra1B7AHpy1X5v-79" target="nHo4GdVra1B7AHpy1X5v-81">
          <mxGeometry relative="1" as="geometry" />
        </mxCell>
        <mxCell id="nHo4GdVra1B7AHpy1X5v-79" value="确认处方" style="whiteSpace=wrap;html=1;rounded=1;shadow=0;strokeWidth=1;spacing=6;spacingTop=-4;" vertex="1" parent="WIyWlLk6GJQsqaUBKTNV-1">
          <mxGeometry x="770" y="680" width="120" height="60" as="geometry" />
        </mxCell>
        <mxCell id="nHo4GdVra1B7AHpy1X5v-86" value="" style="edgeStyle=orthogonalEdgeStyle;rounded=0;orthogonalLoop=1;jettySize=auto;html=1;endArrow=block;endFill=0;" edge="1" parent="WIyWlLk6GJQsqaUBKTNV-1" source="nHo4GdVra1B7AHpy1X5v-81" target="nHo4GdVra1B7AHpy1X5v-85">
          <mxGeometry relative="1" as="geometry" />
        </mxCell>
        <mxCell id="nHo4GdVra1B7AHpy1X5v-81" value="支付" style="whiteSpace=wrap;html=1;rounded=1;shadow=0;strokeWidth=1;spacing=6;spacingTop=-4;" vertex="1" parent="WIyWlLk6GJQsqaUBKTNV-1">
          <mxGeometry x="970" y="680" width="120" height="60" as="geometry" />
        </mxCell>
        <mxCell id="nHo4GdVra1B7AHpy1X5v-90" value="Yes" style="edgeStyle=orthogonalEdgeStyle;rounded=0;orthogonalLoop=1;jettySize=auto;html=1;endArrow=block;endFill=0;" edge="1" parent="WIyWlLk6GJQsqaUBKTNV-1" source="nHo4GdVra1B7AHpy1X5v-85" target="nHo4GdVra1B7AHpy1X5v-89">
          <mxGeometry relative="1" as="geometry" />
        </mxCell>
        <mxCell id="nHo4GdVra1B7AHpy1X5v-93" style="edgeStyle=orthogonalEdgeStyle;rounded=0;orthogonalLoop=1;jettySize=auto;html=1;entryX=0.5;entryY=0;entryDx=0;entryDy=0;endArrow=block;endFill=0;" edge="1" parent="WIyWlLk6GJQsqaUBKTNV-1" source="nHo4GdVra1B7AHpy1X5v-85" target="nHo4GdVra1B7AHpy1X5v-81">
          <mxGeometry relative="1" as="geometry">
            <Array as="points">
              <mxPoint x="1230" y="660" />
              <mxPoint x="1030" y="660" />
            </Array>
          </mxGeometry>
        </mxCell>
        <mxCell id="nHo4GdVra1B7AHpy1X5v-85" value="是否成功" style="rhombus;whiteSpace=wrap;html=1;rounded=1;shadow=0;strokeWidth=1;spacing=6;spacingTop=-4;" vertex="1" parent="WIyWlLk6GJQsqaUBKTNV-1">
          <mxGeometry x="1190" y="670" width="80" height="80" as="geometry" />
        </mxCell>
        <mxCell id="nHo4GdVra1B7AHpy1X5v-92" value="Yes" style="edgeStyle=orthogonalEdgeStyle;rounded=0;orthogonalLoop=1;jettySize=auto;html=1;endArrow=block;endFill=0;" edge="1" parent="WIyWlLk6GJQsqaUBKTNV-1" source="nHo4GdVra1B7AHpy1X5v-89" target="nHo4GdVra1B7AHpy1X5v-91">
          <mxGeometry relative="1" as="geometry" />
        </mxCell>
        <mxCell id="nHo4GdVra1B7AHpy1X5v-89" value="是否拿药" style="rhombus;whiteSpace=wrap;html=1;rounded=1;shadow=0;strokeWidth=1;spacing=6;spacingTop=-4;" vertex="1" parent="WIyWlLk6GJQsqaUBKTNV-1">
          <mxGeometry x="1350" y="670" width="80" height="80" as="geometry" />
        </mxCell>
        <mxCell id="nHo4GdVra1B7AHpy1X5v-91" value="确认拿药" style="whiteSpace=wrap;html=1;rounded=1;shadow=0;strokeWidth=1;spacing=6;spacingTop=-4;" vertex="1" parent="WIyWlLk6GJQsqaUBKTNV-1">
          <mxGeometry x="1490" y="680" width="120" height="60" as="geometry" />
        </mxCell>
        <mxCell id="nHo4GdVra1B7AHpy1X5v-97" value="Yes" style="edgeStyle=orthogonalEdgeStyle;rounded=0;orthogonalLoop=1;jettySize=auto;html=1;endArrow=block;endFill=0;" edge="1" parent="WIyWlLk6GJQsqaUBKTNV-1" source="nHo4GdVra1B7AHpy1X5v-94" target="nHo4GdVra1B7AHpy1X5v-96">
          <mxGeometry relative="1" as="geometry" />
        </mxCell>
        <mxCell id="nHo4GdVra1B7AHpy1X5v-94" value="是否成功" style="rhombus;whiteSpace=wrap;html=1;rounded=1;shadow=0;strokeWidth=1;spacing=6;spacingTop=-4;" vertex="1" parent="WIyWlLk6GJQsqaUBKTNV-1">
          <mxGeometry x="610" y="1050" width="80" height="80" as="geometry" />
        </mxCell>
        <mxCell id="nHo4GdVra1B7AHpy1X5v-96" value="支付完成" style="whiteSpace=wrap;html=1;rounded=1;shadow=0;strokeWidth=1;spacing=6;spacingTop=-4;" vertex="1" parent="WIyWlLk6GJQsqaUBKTNV-1">
          <mxGeometry x="590" y="1220" width="120" height="60" as="geometry" />
        </mxCell>
        <mxCell id="nHo4GdVra1B7AHpy1X5v-98" value="给药" style="whiteSpace=wrap;html=1;rounded=1;shadow=0;strokeWidth=1;spacing=6;spacingTop=-4;" vertex="1" parent="WIyWlLk6GJQsqaUBKTNV-1">
          <mxGeometry x="520" y="1380" width="120" height="60" as="geometry" />
        </mxCell>
      </root>
    </mxGraphModel>
  </diagram>
</mxfile>
